Coordinates
version=1
nRows=27
nColumns=26
inDegrees=yes

Units are S.I. units (second, meters, Newtons, ...)
If the header above contains a line with 'inDegrees', this indicates whether rotational values are in degrees (yes) or radians (no).

endheader
time	pelvis_tilt	pelvis_list	pelvis_rotation	pelvis_tx	pelvis_ty	pelvis_tz	hip_flexion_r	hip_adduction_r	hip_rotation_r	knee_angle_r	knee_angle_r_beta	hip_flexion_l	hip_adduction_l	hip_rotation_l	knee_angle_l	knee_angle_l_beta	lumbar_extension	lumbar_bending	lumbar_rotation	ankle_angle_r	subtalar_angle_r	mtp_angle_r	ankle_angle_l	subtalar_angle_l	mtp_angle_l
      1.32000000	    -11.83237770	     -2.88308960	      6.54556940	     -0.80609414	      0.80919923	      0.38968421	     24.41875585	      3.56795424	     -0.44945375	     26.84586950	      0.46854881	     28.63993829	     -5.03627633	     -1.23095334	     62.04170744	      1.08283207	      0.33830487	      1.15430865	     -4.75394626	      9.12554612	    -11.33456863	      0.00000000	      1.05197169	    -14.03274630	      0.00000000
      1.32666667	    -11.30850226	     -2.72549910	      6.02342790	     -0.79854119	      0.81067963	      0.38977878	     22.92024005	      3.73009611	      0.01221071	     26.17396831	      0.45682193	     28.85622613	     -4.96923323	     -1.79007783	     61.40876913	      1.07178521	     -0.46392377	      1.23838140	     -3.85391952	      9.80116939	    -10.31374719	      0.00000000	      1.47131545	    -14.26807101	      0.00000000
      1.33333333	    -10.99034124	     -2.56220660	      5.78440509	     -0.79110420	      0.81179809	      0.38962311	     21.67133742	      3.70662741	      0.07477440	     25.54874953	      0.44590980	     29.38021662	     -4.72080049	     -2.03725684	     60.78163820	      1.06083971	     -1.00354366	      1.22383107	     -3.42078434	     10.27980026	     -9.61566904	      0.00000000	      1.70074653	    -14.55454915	      0.00000000
      1.34000000	    -10.94712148	     -2.52329539	      5.59598587	     -0.78431705	      0.81211451	      0.38952684	     21.05936018	      3.74397077	     -0.02129256	     25.53619954	      0.44569076	     30.42523083	     -4.59757348	     -2.22712092	     60.40471956	      1.05426124	     -1.30729458	      1.31809904	     -3.36435978	     10.31136441	     -9.60958951	      0.00000000	      1.76660548	    -14.59086874	      0.00000000
      1.34666667	    -10.63614074	     -2.42899221	      5.12726745	     -0.77639069	      0.81328953	      0.38949616	     19.57158377	      3.90009934	      0.49989721	     24.39948004	      0.42585126	     30.74518320	     -4.51915545	     -2.57616919	     59.44033417	      1.03742954	     -1.71350056	      1.41589637	     -2.32505895	     10.79827448	     -8.99041664	      0.00000000	      2.11658535	    -15.25117441	      0.00000000
      1.35333333	    -10.65662192	     -2.41400325	      4.90162957	     -0.76918442	      0.81358606	      0.38931684	     18.86633439	      3.95417433	      0.48954053	     24.08070642	      0.42028761	     31.66069502	     -4.40672547	     -2.67879559	     58.67837259	      1.02413080	     -1.82231064	      1.55451530	     -2.06503848	     10.93043590	     -8.93140848	      0.00000000	      2.32159440	    -15.43312853	      0.00000000
      1.36000000	    -10.37053941	     -2.43049496	      4.46787178	     -0.76184848	      0.81423809	      0.38946472	     17.62983665	      4.20717851	      1.00472023	     23.32772493	      0.40714561	     32.16463914	     -4.49354913	     -2.93852582	     57.84595883	      1.00960244	     -2.31415906	      1.73580478	     -1.32793012	     11.22212297	     -8.57626194	      0.00000000	      2.57861462	    -15.94231536	      0.00000000
      1.36666667	    -10.31935786	     -2.43881639	      4.23658934	     -0.75463286	      0.81445048	      0.38930507	     16.78384177	      4.30643438	      1.11900124	     22.86703717	      0.39910509	     32.95992213	     -4.41722414	     -2.96032261	     56.96530088	      0.99423206	     -2.50918118	      1.88660532	     -0.90206120	     11.38968695	     -8.46494744	      0.00000000	      2.81135375	    -16.22065886	      0.00000000
      1.37333333	     -9.96694595	     -2.53586040	      3.83642060	     -0.74737569	      0.81495328	      0.38939590	     15.56329903	      4.59593931	      1.50946127	     22.29700308	      0.38915612	     33.36751972	     -4.60219082	     -3.11787800	     55.99039965	      0.97721682	     -3.10323186	      2.16859625	     -0.31737630	     11.58301603	     -8.21588394	      0.00000000	      2.98336898	    -16.58065753	      0.00000000
      1.38000000	     -9.98169889	     -2.60938619	      3.58310053	     -0.74037403	      0.81486560	      0.38927386	     14.90381517	      4.74010725	      1.52736421	     22.03914010	      0.38465556	     34.20297270	     -4.60247378	     -3.03713827	     54.95572027	      0.95915826	     -3.26196655	      2.39129129	     -0.02727382	     11.70241127	     -8.18226429	      0.00000000	      3.16700847	    -16.73729255	      0.00000000
      1.38666667	     -9.91384863	     -2.71835084	      3.26183276	     -0.73305596	      0.81491571	      0.38919519	     13.95511744	      4.97756797	      1.89872389	     21.42120127	      0.37387049	     34.84650871	     -4.70499214	     -3.01735518	     53.78885408	      0.93879260	     -3.45942069	      2.66834739	      0.57865912	     11.86833289	     -8.02710064	      0.00000000	      3.42803464	    -17.02086522	      0.00000000
      1.39333333	     -9.66447372	     -2.89432923	      2.92939209	     -0.72583424	      0.81506371	      0.38937353	     12.85518359	      5.32592368	      2.26364487	     20.88702685	      0.36454739	     35.27993665	     -4.95262625	     -3.00116035	     52.54253810	      0.91704029	     -3.91160310	      2.95294032	      1.14928432	     11.96442832	     -7.86197936	      0.00000000	      3.61249659	    -17.20673945	      0.00000000
      1.40000000	     -9.64496713	     -3.02338109	      2.63763113	     -0.71874941	      0.81488868	      0.38916294	     12.08430438	      5.51541016	      2.38728366	     20.49331218	      0.35767577	     35.93587188	     -5.03094775	     -2.83779505	     51.21082482	      0.89379751	     -4.11722402	      3.26839106	      1.55310684	     12.05542419	     -7.78676496	      0.00000000	      3.78125661	    -17.31155631	      0.00000000
      1.40666667	     -9.60773239	     -3.18481370	      2.32480354	     -0.71159322	      0.81468091	      0.38909494	     11.25226361	      5.76890592	      2.60674121	     20.03525243	      0.34968112	     36.51746492	     -5.19369753	     -2.69719554	     49.76851794	      0.86862450	     -4.32812250	      3.57807067	      2.02730075	     12.12472121	     -7.65398385	      0.00000000	      3.92030761	    -17.39367137	      0.00000000
      1.41333333	     -9.48802013	     -3.35868554	      2.00806784	     -0.70445425	      0.81454575	      0.38902187	     10.32943697	      6.03072435	      2.83718510	     19.58255951	      0.34178014	     36.94947450	     -5.37377912	     -2.52439728	     48.20549985	      0.84134469	     -4.65663797	      3.90570865	      2.48034946	     12.15734053	     -7.48838547	      0.00000000	      4.01924135	    -17.43137165	      0.00000000
      1.42000000	     -9.58931192	     -3.58122542	      1.73322381	     -0.69746509	      0.81399481	      0.38888948	      9.82108653	      6.29385450	      2.75191428	     19.48009578	      0.33999181	     37.63833236	     -5.57212193	     -2.28651654	     46.61210517	      0.81353471	     -4.72065435	      4.29591429	      2.69616273	     12.24423244	     -7.46873360	      0.00000000	      4.09091285	    -17.39911153	      0.00000000
      1.42666667	     -9.74685752	     -3.69445499	      1.46097192	     -0.69015370	      0.81352960	      0.38866869	      9.09967507	      6.44462018	      2.97648850	     18.84768700	      0.32895419	     38.22337020	     -5.60787609	     -1.96422000	     44.79434850	      0.78180887	     -4.67232321	      4.51812831	      3.30301945	     12.26608695	     -7.22455349	      0.00000000	      4.12538240	    -17.37537666	      0.00000000
      1.43333333	     -9.85807146	     -3.92242084	      1.17300514	     -0.68306514	      0.81295683	      0.38849951	      8.53278347	      6.70738409	      2.99863851	     18.63118904	      0.32517559	     38.78450693	     -5.81060009	     -1.67405144	     42.97744407	      0.75009790	     -4.73413063	      4.89975563	      3.60083514	     12.31510062	     -7.10691388	      0.00000000	      4.13515430	    -17.28920701	      0.00000000
      1.44000000	     -9.89320535	     -3.97243658	      0.87335261	     -0.67563183	      0.81265329	      0.38822581	      7.65277157	      6.76572898	      3.22855778	     17.96642453	      0.31357326	     39.06789489	     -5.82808293	     -1.44583925	     40.90187268	      0.71387235	     -4.83907414	      5.09068136	      4.14756231	     12.27084010	     -6.69744735	      0.00000000	      4.00763757	    -17.18499672	      0.00000000
      1.44666667	     -9.96826486	     -4.13079399	      0.63435568	     -0.66823880	      0.81212398	      0.38815771	      6.94909876	      6.94594503	      3.21006694	     17.58761473	      0.30696178	     39.41622158	     -5.95960724	     -1.13169041	     38.84611202	      0.67799256	     -4.89152285	      5.29296173	      4.50840762	     12.30438594	     -6.44621287	      0.00000000	      3.92474530	    -17.02961093	      0.00000000
      1.45333333	    -10.11527254	     -4.42691268	      0.31795416	     -0.66100853	      0.81137031	      0.38790424	      6.46184593	      7.23574975	      3.06553412	     17.47240627	      0.30495102	     39.87995937	     -6.26904875	     -0.90100607	     36.88674694	      0.64379518	     -4.88989025	      5.79908635	      4.67005853	     12.37828256	     -6.37854951	      0.00000000	      3.92315456	    -16.86628610	      0.00000000
      1.46000000	    -10.32088578	     -4.42144791	      0.13414910	     -0.65343217	      0.81079456	      0.38742206	      5.77519807	      7.18990940	      3.27234082	     16.86058832	      0.29427278	     40.15715765	     -6.11838715	     -0.44334209	     34.55660225	      0.60312649	     -4.78435440	      5.89817041	      5.20595902	     12.29764787	     -5.97400101	      0.00000000	      3.70389660	    -16.53687159	      0.00000000
      1.46666667	    -10.44892714	     -4.58632649	     -0.10085946	     -0.64585136	      0.81013994	      0.38711439	      5.15134926	      7.33024817	      3.29669760	     16.56248120	      0.28906983	     40.39061476	     -6.23042458	     -0.12310225	     32.36850295	      0.56493695	     -4.76226504	      6.18404833	      5.48905481	     12.30016873	     -5.72328043	      0.00000000	      3.57669940	    -16.26514566	      0.00000000
      1.47333333	    -10.00997285	     -4.36661469	     -0.25087439	     -0.63781360	      0.81032819	      0.38672365	      3.74525570	      7.01547390	      3.26625373	     15.95959843	      0.27854754	     39.75237536	     -5.96844725	     -0.04199551	     29.87616402	      0.52143743	     -5.40250438	      5.95120086	      5.70722392	     12.35506566	     -4.96425183	      0.00000000	      3.21079770	    -16.02512802	      0.00000000
      1.48000000	    -10.20528222	     -4.49316386	     -0.39600315	     -0.62984814	      0.80951415	      0.38621787	      3.12490805	      7.08823492	      3.29382866	     15.56855252	      0.27172250	     39.96805953	     -5.98192510	      0.29502177	     27.72277520	      0.48385371	     -5.22426923	      6.21286062	      6.02882010	     12.33483105	     -4.68834685	      0.00000000	      3.08893294	    -15.65078849	      0.00000000
      1.48666667	    -10.35719586	     -4.64253717	     -0.60565794	     -0.62193944	      0.80872285	      0.38579502	      2.53621675	      7.18230791	      3.33355679	     15.31241805	      0.26725211	     40.11908296	     -6.05869307	      0.60971960	     25.65499845	      0.44776419	     -5.13638214	      6.48350919	      6.27944831	     12.31105459	     -4.49143320	      0.00000000	      2.99813082	    -15.29874907	      0.00000000
      1.49333333	     -9.89535739	     -4.43528085	     -0.67812110	     -0.61347562	      0.80875698	      0.38529770	      1.13033853	      6.86065471	      3.30131593	     14.80638362	      0.25842014	     39.39190042	     -5.77027901	      0.63751935	     23.40511656	      0.40849635	     -5.73011985	      6.26048312	      6.42631964	     12.26786577	     -4.02049861	      0.00000000	      2.76629464	    -14.94708383	      0.00000000
